<svg width="313" height="88" viewBox="0 0 313 88" fill="none" xmlns="http://www.w3.org/2000/svg">
<g clip-path="url(#clip0)">
<path d="M98.4609 30.4602H87.2109V23.7402H117.331V30.4602H106.081V64.0602H98.4609V30.4602Z" fill="black"/>
<path d="M125.291 58.5907C128.343 58.5763 131.377 58.1079 134.291 57.2007L135.441 62.7607C131.959 64.0177 128.283 64.654 124.581 64.6407C115.331 64.6407 112.121 60.3407 112.121 53.2607V45.4607C112.121 39.2307 114.901 33.9707 124.341 33.9707C133.781 33.9707 135.901 39.4707 135.901 45.8207V52.1207H119.581V53.6307C119.581 57.2007 120.811 58.5907 125.291 58.5907ZM119.581 46.1907H128.961V44.7307C128.961 41.9507 128.111 40.0207 124.481 40.0207C120.851 40.0207 119.581 41.9507 119.581 44.7307V46.1907Z" fill="black"/>
<path d="M155.661 40.7407C152.948 41.9667 150.337 43.4045 147.851 45.0407V64.0607H140.471V34.5707H146.701L147.191 37.8407C149.588 36.2131 152.19 34.9117 154.931 33.9707L155.661 40.7407Z" fill="black"/>
<path d="M173.68 40.7407C170.972 41.9689 168.364 43.4066 165.88 45.0407V64.0607H158.5V34.5707H164.73L165.21 37.8407C167.611 36.2132 170.217 34.9119 172.96 33.9707L173.68 40.7407Z" fill="black"/>
<path d="M198.361 64.0607H192.311L191.771 62.0607C189.159 63.7544 186.113 64.6573 183.001 64.6607C177.611 64.6607 175.311 60.9707 175.311 55.8907C175.311 49.8907 177.921 47.6007 183.901 47.6007H190.981V44.4907C190.981 41.2307 190.081 40.0807 185.361 40.0807C182.614 40.1094 179.877 40.4109 177.191 40.9807L176.281 35.3607C179.57 34.4496 182.967 33.9821 186.381 33.9707C195.641 33.9707 198.381 37.2307 198.381 44.6107L198.361 64.0607ZM190.981 52.9007H185.581C183.161 52.9007 182.491 53.5707 182.491 55.8107C182.491 57.8107 183.161 58.8107 185.491 58.8107C187.441 58.7795 189.352 58.2604 191.051 57.3007L190.981 52.9007Z" fill="black"/>
<path d="M221.05 27.8605C219.657 27.5546 218.236 27.3905 216.81 27.3705C213.91 27.3705 213.49 28.6405 213.49 30.8805V34.5705H220.99L220.58 40.4405H213.51V64.0605H206.13V40.4405H201.41V34.5705H206.13V30.4605C206.13 24.3505 208.97 21.3205 215.5 21.3205C217.646 21.3126 219.782 21.5986 221.85 22.1705L221.05 27.8605Z" fill="black"/>
<path d="M235.44 64.6407C225.34 64.6407 222.58 59.0607 222.58 53.0607V45.5807C222.58 39.5807 225.3 33.9707 235.4 33.9707C245.5 33.9707 248.23 39.5307 248.23 45.5807V53.0607C248.27 59.0607 245.58 64.6407 235.44 64.6407ZM235.44 40.2607C231.51 40.2607 230 42.0107 230 45.3407V53.2607C230 56.5907 231.51 58.3507 235.44 58.3507C239.37 58.3507 240.89 56.5907 240.89 53.2607V45.3407C240.89 42.0607 239.38 40.2607 235.44 40.2607Z" fill="black"/>
<path d="M267.26 40.7407C264.552 41.9689 261.944 43.4066 259.46 45.0407V64.0607H252.08V34.5707H258.31L258.79 37.8407C261.204 36.212 263.824 34.9107 266.58 33.9707L267.26 40.7407Z" fill="black"/>
<path d="M287.58 64.0607V43.4607C287.58 41.8907 286.91 41.1007 285.22 41.1007C283.53 41.1007 280.22 42.1907 277.54 43.5907V64.0607H270.15V34.5707H275.78L276.51 37.0507C280.184 35.2172 284.199 34.1683 288.3 33.9707C291.15 33.9707 292.9 35.1207 293.87 37.1107C297.555 35.2302 301.598 34.1596 305.73 33.9707C310.63 33.9707 312.38 37.4107 312.38 42.6807V64.0607H305V43.4607C305 41.8907 304.33 41.1007 302.64 41.1007C299.934 41.3835 297.318 42.2319 294.96 43.5907V64.0607H287.58Z" fill="black"/>
<path fill-rule="evenodd" clip-rule="evenodd" d="M21.1992 16.5508L40.2992 27.5808V49.6408L21.1992 38.6108V16.5508Z" fill="#7B42BC"/>
<path fill-rule="evenodd" clip-rule="evenodd" d="M42.3906 27.5808V49.6408L61.5006 38.6108V16.5508L42.3906 27.5808Z" fill="#7B42BC"/>
<path fill-rule="evenodd" clip-rule="evenodd" d="M0 4.24023V26.3002L19.1 37.3302V15.2702L0 4.24023Z" fill="#7B42BC"/>
<path fill-rule="evenodd" clip-rule="evenodd" d="M21.1992 63.0903L40.2992 74.1203V52.2003V52.0603L21.1992 41.0303V63.0903Z" fill="#7B42BC"/>
<path d="M95.0209 13.78V8.12H89.8509V13.78H87.2109V0.189999H89.8509V5.89H95.0209V0.189999H97.6609V13.78H95.0209ZM107.351 13.78H105.251L105.061 13.11C104.162 13.6742 103.123 13.9755 102.061 13.98C100.201 13.98 99.4009 12.75 99.4009 11.06C99.4009 9.06 100.301 8.3 102.401 8.3H104.851V7.3C104.851 6.21 104.541 5.83 102.851 5.83C101.9 5.83972 100.953 5.94018 100.021 6.13L99.7109 4.26C100.853 3.95854 102.029 3.80396 103.211 3.8C106.411 3.8 107.361 4.88 107.361 7.34L107.351 13.78ZM104.791 10.06H102.901C102.071 10.06 101.841 10.29 101.841 11.06C101.841 11.83 102.071 12.06 102.841 12.06C103.517 12.0558 104.181 11.8804 104.771 11.55L104.791 10.06ZM112.701 13.97C111.507 13.9512 110.322 13.7626 109.181 13.41L109.541 11.53C110.518 11.8051 111.526 11.9496 112.541 11.96C113.671 11.96 113.841 11.71 113.841 10.96C113.841 10.21 113.711 10.05 112.061 9.67C109.561 9.09 109.271 8.48 109.271 6.59C109.271 4.7 110.171 3.76 113.081 3.76C114.11 3.76049 115.137 3.87451 116.141 4.1L115.931 6.06C115.003 5.8965 114.063 5.80291 113.121 5.78C112.011 5.78 111.821 6.02 111.821 6.62C111.821 7.41 111.891 7.47 113.271 7.81C116.121 8.54 116.391 8.9 116.391 10.91C116.391 12.92 115.781 13.98 112.701 13.98V13.97ZM124.411 13.77V6.94C124.411 6.41 124.181 6.15 123.591 6.15C122.658 6.24877 121.754 6.53083 120.931 6.98V13.78H118.371V0L120.931 0.379999V4.72C122.096 4.15126 123.366 3.83114 124.661 3.78C126.361 3.78 126.961 4.92 126.961 6.67V13.78L124.411 13.77ZM129.111 2.58V0.18H131.671V2.58H129.111ZM129.111 13.77V3.97H131.671V13.77H129.111ZM133.711 4.05C133.711 1.59 135.201 0.16 138.711 0.16C139.987 0.162621 141.259 0.313634 142.501 0.609999L142.211 2.8C141.082 2.59554 139.938 2.48185 138.791 2.46C136.971 2.46 136.381 3.06 136.381 4.46V9.61C136.381 11.04 136.971 11.61 138.791 11.61C139.938 11.5882 141.082 11.4745 142.211 11.27L142.501 13.47C141.259 13.763 139.987 13.9107 138.711 13.91C135.231 13.91 133.711 12.48 133.711 10.02V4.05ZM148.121 13.97C144.621 13.97 143.681 12.12 143.681 10.1V7.64C143.681 5.64 144.621 3.78 148.121 3.78C151.621 3.78 152.581 5.63 152.581 7.64V10.11C152.581 12.13 151.581 13.98 148.121 13.98V13.97ZM148.121 5.86C146.761 5.86 146.231 6.44 146.231 7.55V10.19C146.231 11.29 146.761 11.88 148.121 11.88C149.481 11.88 150.011 11.29 150.011 10.19V7.56C150.011 6.45 149.481 5.87 148.121 5.87V5.86ZM159.761 6.02C158.827 6.42894 157.924 6.90693 157.061 7.45V13.77H154.501V3.97H156.661L156.831 5.05C157.665 4.50968 158.566 4.07945 159.511 3.77L159.761 6.02ZM169.981 10.51C169.981 12.68 168.981 13.97 166.611 13.97C165.694 13.9611 164.78 13.8674 163.881 13.69V17.69L161.331 18.07V3.98H163.331L163.581 4.8C164.527 4.13822 165.656 3.7886 166.811 3.8C168.861 3.8 169.951 4.96 169.951 7.2L169.981 10.51ZM163.881 11.61C164.627 11.772 165.387 11.8624 166.151 11.88C167.071 11.88 167.431 11.45 167.431 10.57V7.12C167.431 6.31 167.111 5.87 166.171 5.87C165.33 5.89674 164.523 6.20685 163.881 6.75V11.61Z" fill="black"/>
</g>
<defs>
<clipPath id="clip0">
<rect width="313" height="88" fill="white"/>
</clipPath>
</defs>
</svg>
